<svg width="180" height="53" viewBox="0 0 180 53" fill="none" xmlns="http://www.w3.org/2000/svg">
<path d="M179 46.4028C179 49.1739 176.709 51.4186 173.874 51.4186H6.13243C3.2995 51.4186 1 49.1739 1 46.4028V6.40323C1 3.6334 3.2995 1.38086 6.13243 1.38086H173.873C176.709 1.38086 178.999 3.6334 178.999 6.40323L179 46.4028Z" fill="black"/>
<path d="M173.333 1.44202C176.42 1.44202 178.932 3.89089 178.932 6.90039V45.9004C178.932 48.9099 176.42 51.3588 173.333 51.3588H6.66667C3.58 51.3588 1.06833 48.9099 1.06833 45.9004V6.90039C1.06833 3.89089 3.58 1.44202 6.66667 1.44202H173.333ZM173.333 0.400393H6.66667C3.00167 0.400393 0 3.32702 0 6.90039V45.9004C0 49.4738 3.00167 52.4004 6.66667 52.4004H173.333C176.998 52.4004 180 49.4738 180 45.9004V6.90039C180 3.32702 176.998 0.400393 173.333 0.400393Z" fill="#A6A6A6"/>
<path d="M40.1707 26.1195C40.132 21.9296 43.6894 19.8912 43.852 19.7963C41.8374 16.9324 38.7147 16.5411 37.6174 16.5099C34.9947 16.2408 32.4507 18.04 31.1147 18.04C29.752 18.04 27.6947 16.5359 25.4774 16.5801C22.624 16.623 19.9547 18.2337 18.4907 20.7349C15.4694 25.8348 17.7227 33.3293 20.6174 37.4516C22.0654 39.4705 23.7574 41.7247 25.972 41.6454C28.1387 41.5583 28.948 40.2986 31.5627 40.2986C34.1534 40.2986 34.9134 41.6454 37.172 41.5947C39.4974 41.5583 40.9614 39.5667 42.3587 37.5296C44.032 35.2156 44.704 32.9367 44.7307 32.8197C44.676 32.8015 40.2147 31.1414 40.1707 26.1195Z" fill="white"/>
<path d="M35.904 13.7981C37.0694 12.3772 37.8667 10.4441 37.6454 8.48242C35.9587 8.55522 33.8494 9.61992 32.6347 11.0096C31.56 12.2342 30.6 14.2414 30.848 16.129C32.7427 16.2668 34.688 15.1969 35.904 13.7981Z" fill="white"/>
<path d="M65.4 13.4127C65.4 14.9428 64.9294 16.0946 63.9894 16.8681C63.1187 17.5818 61.8814 17.9393 60.2787 17.9393C59.484 17.9393 58.804 17.9055 58.2347 17.8379V9.47758C58.9773 9.36058 59.7773 9.30078 60.6413 9.30078C62.168 9.30078 63.3187 9.62448 64.0947 10.2719C64.964 11.0038 65.4 12.0503 65.4 13.4127ZM63.9267 13.4504C63.9267 12.4585 63.6574 11.698 63.1187 11.1676C62.58 10.6385 61.7934 10.3733 60.7574 10.3733C60.3174 10.3733 59.9427 10.4019 59.632 10.4617V16.8174C59.804 16.8434 60.1187 16.8551 60.576 16.8551C61.6454 16.8551 62.4707 16.5652 63.052 15.9854C63.6334 15.4056 63.9267 14.5606 63.9267 13.4504Z" fill="white"/>
<path d="M73.212 14.7495C73.212 15.692 72.936 16.4642 72.384 17.07C71.8054 17.6927 71.0387 18.0034 70.0814 18.0034C69.1587 18.0034 68.424 17.7057 67.876 17.1077C67.3294 16.511 67.056 15.7583 67.056 14.8509C67.056 13.9019 67.3374 13.1232 67.9027 12.5187C68.468 11.9142 69.228 11.6113 70.1854 11.6113C71.108 11.6113 71.8494 11.909 72.4107 12.5057C72.944 13.0855 73.212 13.8343 73.212 14.7495ZM71.7627 14.7937C71.7627 14.2282 71.6374 13.7433 71.388 13.339C71.0947 12.8502 70.6774 12.6058 70.1347 12.6058C69.5734 12.6058 69.1467 12.8502 68.8534 13.339C68.6027 13.7433 68.4787 14.236 68.4787 14.8184C68.4787 15.3839 68.604 15.8688 68.8534 16.2731C69.156 16.7619 69.5774 17.0063 70.1214 17.0063C70.6547 17.0063 71.0734 16.758 71.3747 16.2601C71.6334 15.848 71.7627 15.3592 71.7627 14.7937Z" fill="white"/>
<path d="M83.6867 11.7363L81.72 17.8645H80.44L79.6253 15.2034C79.4187 14.5391 79.2507 13.8787 79.12 13.2235H79.0947C78.9733 13.8969 78.8053 14.556 78.5893 15.2034L77.724 17.8645H76.4293L74.58 11.7363H76.016L76.7267 14.6496C76.8987 15.3386 77.04 15.9951 77.1533 16.6165H77.1787C77.2827 16.1043 77.4547 15.4517 77.6973 14.6626L78.5893 11.7376H79.728L80.5827 14.6002C80.7893 15.2983 80.9573 15.9704 81.0867 16.6178H81.1253C81.22 15.9873 81.3627 15.3152 81.552 14.6002L82.3147 11.7376H83.6867V11.7363Z" fill="white"/>
<path d="M90.9307 17.8643H89.5334V14.3543C89.5334 13.2727 89.112 12.7319 88.2667 12.7319C87.852 12.7319 87.5174 12.8801 87.2574 13.1778C87 13.4755 86.8694 13.8265 86.8694 14.2282V17.863H85.472V13.4872C85.472 12.949 85.4547 12.3653 85.4214 11.7335H86.6494L86.7147 12.6916H86.7534C86.9161 12.3939 87.1587 12.1482 87.4774 11.9519C87.856 11.7231 88.28 11.6074 88.744 11.6074C89.3307 11.6074 89.8187 11.792 90.2067 12.1625C90.6894 12.6162 90.9307 13.2935 90.9307 14.1931V17.8643Z" fill="white"/>
<path d="M94.784 17.8639H93.388V8.92383H94.784V17.8639Z" fill="white"/>
<path d="M103.011 14.7495C103.011 15.692 102.735 16.4642 102.183 17.07C101.604 17.6927 100.836 18.0034 99.88 18.0034C98.956 18.0034 98.2213 17.7057 97.6747 17.1077C97.128 16.511 96.8547 15.7583 96.8547 14.8509C96.8547 13.9019 97.136 13.1232 97.7013 12.5187C98.2667 11.9142 99.0267 11.6113 99.9827 11.6113C100.907 11.6113 101.647 11.909 102.209 12.5057C102.743 13.0855 103.011 13.8343 103.011 14.7495ZM101.56 14.7937C101.56 14.2282 101.435 13.7433 101.185 13.339C100.893 12.8502 100.475 12.6058 99.9333 12.6058C99.3707 12.6058 98.944 12.8502 98.652 13.339C98.4013 13.7433 98.2773 14.236 98.2773 14.8184C98.2773 15.3839 98.4027 15.8688 98.652 16.2731C98.9547 16.7619 99.376 17.0063 99.92 17.0063C100.453 17.0063 100.871 16.758 101.172 16.2601C101.432 15.848 101.56 15.3592 101.56 14.7937Z" fill="white"/>
<path d="M109.773 17.8643H108.519L108.415 17.1584H108.376C107.947 17.7213 107.335 18.0034 106.54 18.0034C105.947 18.0034 105.467 17.8175 105.105 17.4483C104.777 17.1129 104.613 16.6956 104.613 16.2003C104.613 15.4515 104.933 14.8808 105.577 14.4856C106.22 14.0904 107.124 13.8967 108.288 13.9058V13.7914C108.288 12.9841 107.853 12.5811 106.983 12.5811C106.363 12.5811 105.816 12.7332 105.344 13.0348L105.06 12.1404C105.644 11.7881 106.365 11.6113 107.216 11.6113C108.859 11.6113 109.683 12.4563 109.683 14.1463V16.4031C109.683 17.0154 109.713 17.5029 109.773 17.8643ZM108.323 15.7583V14.8132C106.781 14.7872 106.011 15.1993 106.011 16.0482C106.011 16.368 106.099 16.6072 106.279 16.7671C106.459 16.927 106.688 17.0063 106.961 17.0063C107.268 17.0063 107.555 16.9114 107.816 16.7229C108.079 16.5331 108.24 16.2926 108.3 15.9975C108.315 15.9312 108.323 15.8506 108.323 15.7583Z" fill="white"/>
<path d="M117.713 17.8639H116.473L116.408 16.8798H116.369C115.973 17.6286 115.299 18.003 114.351 18.003C113.593 18.003 112.963 17.7131 112.463 17.1333C111.963 16.5535 111.713 15.8008 111.713 14.8765C111.713 13.8846 111.984 13.0812 112.528 12.4676C113.055 11.8956 113.7 11.6096 114.468 11.6096C115.312 11.6096 115.903 11.8865 116.239 12.4416H116.265V8.92383H117.664V16.2129C117.664 16.8096 117.68 17.3595 117.713 17.8639ZM116.265 15.2795V14.2577C116.265 14.0809 116.252 13.9379 116.227 13.8287C116.148 13.5011 115.979 13.2255 115.721 13.0032C115.461 12.7809 115.148 12.6691 114.787 12.6691C114.265 12.6691 113.857 12.8706 113.557 13.2749C113.26 13.6792 113.109 14.1953 113.109 14.8258C113.109 15.4316 113.252 15.923 113.539 16.3013C113.841 16.7043 114.249 16.9058 114.76 16.9058C115.219 16.9058 115.585 16.7381 115.864 16.4014C116.133 16.0907 116.265 15.7163 116.265 15.2795Z" fill="white"/>
<path d="M129.664 14.7495C129.664 15.692 129.388 16.4642 128.836 17.07C128.257 17.6927 127.492 18.0034 126.533 18.0034C125.612 18.0034 124.877 17.7057 124.328 17.1077C123.781 16.511 123.508 15.7583 123.508 14.8509C123.508 13.9019 123.789 13.1232 124.355 12.5187C124.92 11.9142 125.68 11.6113 126.639 11.6113C127.56 11.6113 128.303 11.909 128.863 12.5057C129.396 13.0855 129.664 13.8343 129.664 14.7495ZM128.216 14.7937C128.216 14.2282 128.091 13.7433 127.841 13.339C127.547 12.8502 127.131 12.6058 126.587 12.6058C126.027 12.6058 125.6 12.8502 125.305 13.339C125.055 13.7433 124.931 14.236 124.931 14.8184C124.931 15.3839 125.056 15.8688 125.305 16.2731C125.608 16.7619 126.029 17.0063 126.573 17.0063C127.107 17.0063 127.527 16.758 127.828 16.2601C128.085 15.848 128.216 15.3592 128.216 14.7937Z" fill="white"/>
<path d="M137.177 17.8643H135.781V14.3543C135.781 13.2727 135.36 12.7319 134.513 12.7319C134.099 12.7319 133.764 12.8801 133.505 13.1778C133.247 13.4755 133.117 13.8265 133.117 14.2282V17.863H131.719V13.4872C131.719 12.949 131.703 12.3653 131.669 11.7335H132.896L132.961 12.6916H133C133.164 12.3939 133.407 12.1482 133.724 11.9519C134.104 11.7231 134.527 11.6074 134.992 11.6074C135.577 11.6074 136.065 11.792 136.453 12.1625C136.937 12.6162 137.177 13.2935 137.177 14.1931V17.8643Z" fill="white"/>
<path d="M146.581 12.7557H145.043V15.7327C145.043 16.4893 145.316 16.8676 145.857 16.8676C146.108 16.8676 146.316 16.8468 146.48 16.8039L146.516 17.8374C146.24 17.9388 145.877 17.9895 145.431 17.9895C144.879 17.9895 144.449 17.8257 144.139 17.4981C143.827 17.1705 143.672 16.6193 143.672 15.8458V12.7557H142.753V11.7352H143.672V10.612L145.041 10.209V11.7339H146.58V12.7557H146.581Z" fill="white"/>
<path d="M153.979 17.8639H152.58V14.3799C152.58 13.2814 152.159 12.7315 151.315 12.7315C150.667 12.7315 150.224 13.05 149.981 13.687C149.94 13.8209 149.916 13.9847 149.916 14.1771V17.8626H148.52V8.92383H149.916V12.6171H149.943C150.383 11.945 151.013 11.6096 151.831 11.6096C152.409 11.6096 152.888 11.7942 153.268 12.1647C153.741 12.6262 153.979 13.3126 153.979 14.22V17.8639Z" fill="white"/>
<path d="M161.609 14.5103C161.609 14.7547 161.591 14.9601 161.557 15.1278H157.367C157.385 15.7336 157.585 16.1951 157.973 16.5149C158.328 16.8009 158.785 16.9439 159.345 16.9439C159.965 16.9439 160.531 16.8477 161.04 16.654L161.259 17.6004C160.663 17.8526 159.961 17.9787 159.149 17.9787C158.176 17.9787 157.409 17.6992 156.855 17.1402C156.297 16.5812 156.021 15.8311 156.021 14.8899C156.021 13.9656 156.279 13.196 156.797 12.5824C157.339 11.9272 158.071 11.5996 158.995 11.5996C159.899 11.5996 160.585 11.9272 161.049 12.5824C161.424 13.1024 161.609 13.7459 161.609 14.5103ZM160.276 14.158C160.287 13.7537 160.195 13.4053 160.005 13.1115C159.763 12.7332 159.393 12.5434 158.893 12.5434C158.437 12.5434 158.065 12.728 157.781 13.0985C157.549 13.3936 157.412 13.7459 157.367 14.158H160.276Z" fill="white"/>
<path d="M71.5266 41.3551H68.4986L66.84 36.2734H61.0746L59.4946 41.3551H56.5466L62.2586 24.0547H65.7866L71.5266 41.3551ZM66.34 34.1414L64.84 29.6239C64.6813 29.1624 64.384 28.0756 63.9453 26.3648H63.892C63.7173 27.1006 63.436 28.1874 63.0493 29.6239L61.576 34.1414H66.34Z" fill="white"/>
<path d="M86.216 34.9631C86.216 37.0847 85.628 38.7617 84.452 39.9928C83.3987 41.0887 82.0907 41.636 80.5293 41.636C78.844 41.636 77.6333 41.0458 76.896 39.8654H76.8427V46.4369H74V32.9858C74 31.652 73.964 30.2831 73.8947 28.8791H76.3947L76.5533 30.8564H76.6067C77.5547 29.3666 78.9933 28.623 80.924 28.623C82.4333 28.623 83.6933 29.2041 84.7013 30.3676C85.712 31.5324 86.216 33.0638 86.216 34.9631ZM83.32 35.0645C83.32 33.8503 83.04 32.8493 82.4773 32.0615C81.8627 31.2399 81.0373 30.8291 80.0027 30.8291C79.3013 30.8291 78.664 31.0579 78.0947 31.509C77.524 31.964 77.1506 32.5581 76.976 33.2939C76.888 33.6371 76.844 33.9179 76.844 34.1389V36.2189C76.844 37.1263 77.1293 37.892 77.7 38.5173C78.2707 39.1426 79.012 39.4546 79.924 39.4546C80.9947 39.4546 81.828 39.0516 82.424 38.2482C83.0213 37.4435 83.32 36.3827 83.32 35.0645Z" fill="white"/>
<path d="M100.932 34.9631C100.932 37.0847 100.344 38.7617 99.1666 39.9928C98.1146 41.0887 96.8066 41.636 95.2453 41.636C93.5599 41.636 92.3493 41.0458 91.6133 39.8654H91.5599V46.4369H88.7173V32.9858C88.7173 31.652 88.6813 30.2831 88.6119 28.8791H91.1119L91.2706 30.8564H91.3239C92.2706 29.3666 93.7093 28.623 95.6413 28.623C97.1493 28.623 98.4093 29.2041 99.4199 30.3676C100.427 31.5324 100.932 33.0638 100.932 34.9631ZM98.0359 35.0645C98.0359 33.8503 97.7546 32.8493 97.1919 32.0615C96.5773 31.2399 95.7546 30.8291 94.7186 30.8291C94.0159 30.8291 93.3799 31.0579 92.8093 31.509C92.2386 31.964 91.8666 32.5581 91.6919 33.2939C91.6053 33.6371 91.5599 33.9179 91.5599 34.1389V36.2189C91.5599 37.1263 91.8453 37.892 92.4133 38.5173C92.9839 39.1413 93.7253 39.4546 94.6399 39.4546C95.7106 39.4546 96.5439 39.0516 97.1399 38.2482C97.7373 37.4435 98.0359 36.3827 98.0359 35.0645Z" fill="white"/>
<path d="M117.385 36.5031C117.385 37.9747 116.861 39.172 115.809 40.0963C114.653 41.1064 113.044 41.6108 110.976 41.6108C109.067 41.6108 107.536 41.252 106.377 40.5331L107.036 38.223C108.284 38.9588 109.653 39.328 111.145 39.328C112.216 39.328 113.049 39.0914 113.648 38.6208C114.244 38.1502 114.541 37.5184 114.541 36.7306C114.541 36.0286 114.296 35.4371 113.804 34.9574C113.315 34.4777 112.497 34.0318 111.356 33.6197C108.249 32.49 106.697 30.8351 106.697 28.6589C106.697 27.2367 107.241 26.0706 108.331 25.1632C109.416 24.2545 110.864 23.8008 112.675 23.8008C114.289 23.8008 115.631 24.0751 116.701 24.6224L115.991 26.8818C114.991 26.3514 113.86 26.0862 112.595 26.0862C111.595 26.0862 110.813 26.3267 110.253 26.8051C109.78 27.2328 109.543 27.7541 109.543 28.3716C109.543 29.0554 109.813 29.6209 110.357 30.0655C110.831 30.4763 111.691 30.9209 112.939 31.4006C114.465 31.9999 115.587 32.7006 116.308 33.504C117.027 34.3048 117.385 35.3071 117.385 36.5031Z" fill="white"/>
<path d="M126.784 30.9598H123.651V37.0165C123.651 38.557 124.203 39.3266 125.309 39.3266C125.817 39.3266 126.239 39.2837 126.572 39.1979L126.651 41.3026C126.091 41.5067 125.353 41.6094 124.44 41.6094C123.317 41.6094 122.44 41.2753 121.807 40.6084C121.176 39.9402 120.859 38.8196 120.859 37.2453V30.9572H118.992V28.8772H120.859V26.5931L123.651 25.7715V28.8772H126.784V30.9598Z" fill="white"/>
<path d="M140.921 35.0145C140.921 36.932 140.359 38.5063 139.236 39.7374C138.059 41.0049 136.496 41.6367 134.548 41.6367C132.671 41.6367 131.176 41.0296 130.061 39.8154C128.947 38.6012 128.389 37.0685 128.389 35.2212C128.389 33.2881 128.963 31.7047 130.113 30.4736C131.261 29.2412 132.811 28.625 134.759 28.625C136.636 28.625 138.147 29.2321 139.287 30.4476C140.377 31.6267 140.921 33.149 140.921 35.0145ZM137.972 35.1042C137.972 33.9537 137.72 32.967 137.209 32.1441C136.613 31.1483 135.761 30.6517 134.657 30.6517C133.515 30.6517 132.647 31.1496 132.051 32.1441C131.54 32.9683 131.288 33.9706 131.288 35.1562C131.288 36.3067 131.54 37.2934 132.051 38.115C132.665 39.1108 133.524 39.6074 134.632 39.6074C135.717 39.6074 136.569 39.1004 137.184 38.089C137.708 37.2505 137.972 36.2534 137.972 35.1042Z" fill="white"/>
<path d="M150.161 31.3166C149.88 31.2659 149.58 31.2399 149.265 31.2399C148.265 31.2399 147.492 31.6078 146.948 32.3449C146.475 32.9949 146.237 33.8165 146.237 34.8084V41.3539H143.396L143.423 32.8077C143.423 31.3699 143.387 30.0608 143.316 28.8804H145.792L145.896 31.2672H145.975C146.275 30.4469 146.748 29.7865 147.396 29.2912C148.029 28.8453 148.713 28.623 149.451 28.623C149.713 28.623 149.951 28.6412 150.161 28.6737V31.3166Z" fill="white"/>
<path d="M162.875 34.5263C162.875 35.0229 162.841 35.4415 162.771 35.7834H154.243C154.276 37.0158 154.688 37.9583 155.48 38.6083C156.199 39.1894 157.128 39.4806 158.269 39.4806C159.532 39.4806 160.684 39.2843 161.72 38.8904L162.165 40.8144C160.955 41.3292 159.525 41.5853 157.876 41.5853C155.892 41.5853 154.335 41.0159 153.201 39.8784C152.071 38.7409 151.504 37.2134 151.504 35.2972C151.504 33.4161 152.031 31.8496 153.085 30.6003C154.189 29.2665 155.681 28.5996 157.559 28.5996C159.403 28.5996 160.799 29.2665 161.747 30.6003C162.497 31.6598 162.875 32.9702 162.875 34.5263ZM160.164 33.8074C160.183 32.9858 159.997 32.276 159.612 31.6767C159.12 30.9058 158.364 30.521 157.347 30.521C156.417 30.521 155.661 30.8967 155.084 31.6507C154.611 32.25 154.329 32.9689 154.243 33.8061H160.164V33.8074Z" fill="white"/>
</svg>
