<svg width="180" height="53" viewBox="0 0 180 53" fill="none" xmlns="http://www.w3.org/2000/svg">
<path d="M173.333 52.4004H6.66667C3.00167 52.4004 0 49.4738 0 45.9004V6.90039C0 3.32702 3.00167 0.400393 6.66667 0.400393H173.333C176.998 0.400393 180 3.32702 180 6.90039V45.9004C180 49.4738 176.998 52.4004 173.333 52.4004Z" fill="black"/>
<path d="M173.333 1.44202C176.42 1.44202 178.932 3.89089 178.932 6.90039V45.9004C178.932 48.9099 176.42 51.3588 173.333 51.3588H6.66667C3.58 51.3588 1.06833 48.9099 1.06833 45.9004V6.90039C1.06833 3.89089 3.58 1.44202 6.66667 1.44202H173.333ZM173.333 0.400393H6.66667C3.00167 0.400393 0 3.32702 0 6.90039V45.9004C0 49.4738 3.00167 52.4004 6.66667 52.4004H173.333C176.998 52.4004 180 49.4738 180 45.9004V6.90039C180 3.32702 176.998 0.400393 173.333 0.400393Z" fill="#A6A6A6"/>
<path d="M13.9134 10.1999C13.5217 10.5996 13.295 11.222 13.295 12.028V40.7775C13.295 41.5835 13.5217 42.2059 13.9134 42.6056L14.01 42.6934L30.5334 26.5896V26.2094L14.01 10.1056L13.9134 10.1999Z" fill="url(#paint0_linear_14059_28988)"/>
<path d="M36.035 31.9609L30.5333 26.5903V26.2101L36.0417 20.8394L36.165 20.9093L42.6883 24.5282C44.55 25.5552 44.55 27.2452 42.6883 28.2787L36.165 31.8911L36.035 31.9609Z" fill="url(#paint1_linear_14059_28988)"/>
<path d="M36.165 31.8906L30.5333 26.3997L13.9133 42.6059C14.5317 43.2396 15.54 43.316 16.6867 42.6822L36.165 31.8906Z" fill="url(#paint2_linear_14059_28988)"/>
<path d="M36.165 20.9095L16.6867 10.1179C15.54 9.49065 14.5317 9.56702 13.9133 10.2008L30.5333 26.4004L36.165 20.9095Z" fill="url(#paint3_linear_14059_28988)"/>
<path d="M63.2233 13.7166C63.2233 14.8021 62.89 15.6715 62.2333 16.3198C61.4783 17.0885 60.495 17.4752 59.29 17.4752C58.1383 17.4752 57.155 17.082 56.3483 16.3068C55.54 15.5203 55.1367 14.5551 55.1367 13.3997C55.1367 12.2443 55.54 11.2791 56.3483 10.4991C57.155 9.71747 58.1383 9.32422 59.29 9.32422C59.8633 9.32422 60.41 9.43959 60.9317 9.65409C61.4517 9.87022 61.875 10.1627 62.1817 10.5235L61.485 11.2092C60.95 10.5933 60.2217 10.2895 59.29 10.2895C58.45 10.2895 57.7217 10.5755 57.1033 11.1523C56.4917 11.7308 56.185 12.48 56.185 13.3997C56.185 14.3195 56.4917 15.0751 57.1033 15.6536C57.7217 16.224 58.45 16.5165 59.29 16.5165C60.1817 16.5165 60.9317 16.224 61.5233 15.6471C61.9133 15.2652 62.135 14.7387 62.1933 14.066H59.29V13.1267H63.1633C63.21 13.3298 63.2233 13.5265 63.2233 13.7166Z" fill="white" stroke="white" stroke-width="0.16" stroke-miterlimit="10"/>
<path d="M69.3683 10.461H65.73V12.931H69.01V13.8703H65.73V16.3403H69.3683V17.2974H64.7V9.50391H69.3683V10.461Z" fill="white" stroke="white" stroke-width="0.16" stroke-miterlimit="10"/>
<path d="M73.705 17.2974H72.675V10.461H70.4433V9.50391H75.9383V10.461H73.705V17.2974Z" fill="white" stroke="white" stroke-width="0.16" stroke-miterlimit="10"/>
<path d="M79.915 17.2974V9.50391H80.9434V17.2974H79.915Z" fill="white" stroke="white" stroke-width="0.16" stroke-miterlimit="10"/>
<path d="M85.5016 17.2974H84.48V10.461H82.24V9.50391H87.7416V10.461H85.5016V17.2974Z" fill="white" stroke="white" stroke-width="0.16" stroke-miterlimit="10"/>
<path d="M98.145 16.2938C97.3566 17.082 96.38 17.4752 95.215 17.4752C94.0433 17.4752 93.0666 17.082 92.2783 16.2938C91.4916 15.5073 91.1 14.5421 91.1 13.3997C91.1 12.2573 91.4916 11.2921 92.2783 10.5056C93.0666 9.71747 94.0433 9.32422 95.215 9.32422C96.3733 9.32422 97.35 9.71747 98.1383 10.5121C98.9317 11.3051 99.3233 12.2638 99.3233 13.3997C99.3233 14.5421 98.9316 15.5073 98.145 16.2938ZM93.04 15.6406C93.6333 16.224 94.355 16.5165 95.215 16.5165C96.0683 16.5165 96.7966 16.224 97.3833 15.6406C97.975 15.0572 98.275 14.3081 98.275 13.3997C98.275 12.4913 97.975 11.7422 97.3833 11.1588C96.7966 10.5755 96.0683 10.283 95.215 10.283C94.355 10.283 93.6333 10.5755 93.04 11.1588C92.4483 11.7422 92.1483 12.4913 92.1483 13.3997C92.1483 14.3081 92.4483 15.0572 93.04 15.6406Z" fill="white" stroke="white" stroke-width="0.16" stroke-miterlimit="10"/>
<path d="M100.768 17.2974V9.50391H102.018L105.905 15.5652H105.95L105.905 14.0669V9.50391H106.933V17.2974H105.86L101.79 10.9372H101.745L101.79 12.4419V17.2974H100.768Z" fill="white" stroke="white" stroke-width="0.16" stroke-miterlimit="10"/>
<path d="M90.8466 28.6787C87.715 28.6787 85.1566 31.0024 85.1566 34.2085C85.1566 37.3887 87.715 39.7368 90.8466 39.7368C93.985 39.7368 96.5433 37.3887 96.5433 34.2085C96.5433 31.0024 93.985 28.6787 90.8466 28.6787ZM90.8466 37.5593C89.1283 37.5593 87.65 36.1764 87.65 34.2085C87.65 32.2147 89.1283 30.8562 90.8466 30.8562C92.565 30.8562 94.05 32.2147 94.05 34.2085C94.05 36.1764 92.565 37.5593 90.8466 37.5593ZM78.4316 28.6787C75.2933 28.6787 72.7416 31.0024 72.7416 34.2085C72.7416 37.3887 75.2933 39.7368 78.4316 39.7368C81.5683 39.7368 84.1216 37.3887 84.1216 34.2085C84.1216 31.0024 81.5683 28.6787 78.4316 28.6787ZM78.4316 37.5593C76.7116 37.5593 75.2283 36.1764 75.2283 34.2085C75.2283 32.2147 76.7116 30.8562 78.4316 30.8562C80.15 30.8562 81.6283 32.2147 81.6283 34.2085C81.6283 36.1764 80.15 37.5593 78.4316 37.5593ZM63.6583 30.3735V32.7233H69.4133C69.245 34.0363 68.795 35.0016 68.105 35.6743C67.265 36.4868 65.9566 37.3887 63.6583 37.3887C60.1166 37.3887 57.3433 34.6018 57.3433 31.1487C57.3433 27.6956 60.1166 24.9087 63.6583 24.9087C65.5733 24.9087 66.9666 25.6383 67.995 26.5841L69.6933 24.9282C68.255 23.5892 66.3416 22.5606 63.6583 22.5606C58.8016 22.5606 54.72 26.4134 54.72 31.1487C54.72 35.8839 58.8016 39.7368 63.6583 39.7368C66.2833 39.7368 68.255 38.8983 69.805 37.3253C71.3933 35.7767 71.8883 33.5992 71.8883 31.8409C71.8883 31.2949 71.8416 30.7928 71.7583 30.3735H63.6583ZM124.068 32.1952C123.6 30.9585 122.155 28.6787 119.212 28.6787C116.295 28.6787 113.867 30.9196 113.867 34.2085C113.867 37.3058 116.27 39.7368 119.492 39.7368C122.097 39.7368 123.6 38.1882 124.218 37.2863L122.285 36.0302C121.64 36.9499 120.762 37.5593 119.492 37.5593C118.23 37.5593 117.325 36.9954 116.745 35.8839L124.33 32.824L124.068 32.1952ZM116.335 34.0363C116.27 31.9043 118.033 30.8123 119.297 30.8123C120.287 30.8123 121.127 31.2949 121.407 31.9855L116.335 34.0363ZM110.17 39.4004H112.663V23.1504H110.17V39.4004ZM106.087 29.9104H106.003C105.443 29.2637 104.375 28.6787 103.022 28.6787C100.182 28.6787 97.585 31.1097 97.585 34.2264C97.585 37.3253 100.182 39.7368 103.022 39.7368C104.375 39.7368 105.443 39.1469 106.003 38.4807H106.087V39.2737C106.087 41.3878 104.928 42.5237 103.06 42.5237C101.537 42.5237 100.592 41.4512 100.202 40.5493L98.0333 41.4317C98.6583 42.8974 100.313 44.7012 103.06 44.7012C105.983 44.7012 108.45 43.0242 108.45 38.9438V29.015H106.087V29.9104ZM103.235 37.5593C101.517 37.5593 100.078 36.1569 100.078 34.2264C100.078 32.2781 101.517 30.8562 103.235 30.8562C104.928 30.8562 106.263 32.2781 106.263 34.2264C106.263 36.1569 104.928 37.5593 103.235 37.5593ZM135.742 23.1504H129.778V39.4004H132.265V33.2433H135.742C138.503 33.2433 141.212 31.2949 141.212 28.196C141.212 25.0988 138.497 23.1504 135.742 23.1504ZM135.807 30.9829H132.265V25.4108H135.807C137.663 25.4108 138.723 26.9139 138.723 28.196C138.723 29.4538 137.663 30.9829 135.807 30.9829ZM151.178 28.6478C149.382 28.6478 147.513 29.4213 146.745 31.1357L148.952 32.0375C149.427 31.1357 150.3 30.8432 151.223 30.8432C152.513 30.8432 153.822 31.5988 153.842 32.9329V33.1035C153.392 32.85 152.428 32.4747 151.243 32.4747C148.867 32.4747 146.445 33.7503 146.445 36.1309C146.445 38.3084 148.392 39.7108 150.58 39.7108C152.253 39.7108 153.177 38.9747 153.757 38.1183H153.842V39.3744H156.243V33.1409C156.243 30.2598 154.037 28.6478 151.178 28.6478ZM150.878 37.5528C150.065 37.5528 148.932 37.1595 148.932 36.1764C148.932 34.9187 150.345 34.436 151.568 34.436C152.663 34.436 153.177 34.6717 153.842 34.982C153.647 36.4868 152.318 37.5528 150.878 37.5528ZM164.993 29.0037L162.135 36.048H162.05L159.095 29.0037H156.413L160.853 38.8479L158.32 44.3258H160.918L167.76 29.0037H164.993ZM142.578 39.4004H145.072V23.1504H142.578V39.4004Z" fill="white"/>
<defs>
<linearGradient id="paint0_linear_14059_28988" x1="29.0663" y1="41.0769" x2="7.25617" y2="18.7075" gradientUnits="userSpaceOnUse">
<stop stop-color="#00A0FF"/>
<stop offset="0.0066" stop-color="#00A1FF"/>
<stop offset="0.2601" stop-color="#00BEFF"/>
<stop offset="0.5122" stop-color="#00D2FF"/>
<stop offset="0.7604" stop-color="#00DFFF"/>
<stop offset="1" stop-color="#00E3FF"/>
</linearGradient>
<linearGradient id="paint1_linear_14059_28988" x1="45.1125" y1="26.3984" x2="12.85" y2="26.3984" gradientUnits="userSpaceOnUse">
<stop stop-color="#FFE000"/>
<stop offset="0.4087" stop-color="#FFBD00"/>
<stop offset="0.7754" stop-color="#FFA500"/>
<stop offset="1" stop-color="#FF9C00"/>
</linearGradient>
<linearGradient id="paint2_linear_14059_28988" x1="33.1027" y1="23.4148" x2="3.52635" y2="-6.91985" gradientUnits="userSpaceOnUse">
<stop stop-color="#FF3A44"/>
<stop offset="1" stop-color="#C31162"/>
</linearGradient>
<linearGradient id="paint3_linear_14059_28988" x1="9.72973" y1="52.1713" x2="22.9369" y2="38.6257" gradientUnits="userSpaceOnUse">
<stop stop-color="#32A071"/>
<stop offset="0.0685" stop-color="#2DA771"/>
<stop offset="0.4762" stop-color="#15CF74"/>
<stop offset="0.8009" stop-color="#06E775"/>
<stop offset="1" stop-color="#00F076"/>
</linearGradient>
</defs>
</svg>
