<svg width="52" height="21" viewBox="0 0 52 21" fill="none" xmlns="http://www.w3.org/2000/svg">
<path d="M26.1765 7.47322V5.08008H34.9725C35.5672 5.08008 35.5672 5.61354 35.3686 5.91083L30.4553 13.6033H35.3686V15.9965H26.6125C26.0178 15.9965 26.0178 15.4621 26.2164 15.1657L31.1492 7.47322H26.1765Z" fill="#3C1C54"/>
<path d="M36.4977 2.5286C36.4977 1.61913 37.2306 0.847656 38.1816 0.847656C39.1325 0.847656 39.8655 1.59876 39.8655 2.5286C39.8655 3.45845 39.0926 4.20955 38.1816 4.20955C37.2705 4.20955 36.4977 3.45845 36.4977 2.5286ZM39.5676 15.9965H36.7946V5.08012H39.5676V15.9965Z" fill="#3C1C54"/>
<path d="M48.8786 5.7131V1.125H51.6516V10.4197C51.6516 13.7816 49.4528 16.1748 46.2827 16.1748C43.1126 16.1748 40.8748 13.7816 40.8748 10.6179C40.8748 7.45424 43.1135 4.94255 46.2827 4.94255C47.2142 4.94255 48.1447 5.27874 48.8776 5.71403L48.8786 5.7131ZM46.2642 13.3269C47.7894 13.3269 49.0372 12.0812 49.0372 10.5383C49.0372 8.99534 47.7894 7.78951 46.2642 7.78951C44.7389 7.78951 43.4911 9.01572 43.4911 10.5383C43.4911 12.0609 44.7195 13.3269 46.2642 13.3269Z" fill="#3C1C54"/>
<path fill-rule="evenodd" clip-rule="evenodd" d="M10.0169 2.18877C9.50203 2.18877 9.08825 2.60183 9.08825 3.11583C9.08825 4.15774 9.4176 5.16723 10.0169 6.00447C10.6163 5.16723 10.9456 4.15682 10.9456 3.11583C10.9456 2.60183 10.5318 2.18877 10.0169 2.18877ZM11.2545 7.33533C12.2092 6.14339 12.7371 4.65601 12.7371 3.11583C12.7371 1.57566 11.5217 0.400391 10.0169 0.400391C8.51212 0.400391 7.29676 1.61456 7.29676 3.11583C7.29676 4.61711 7.82558 6.14431 8.77931 7.33533L6.947 9.16446C5.75298 8.21146 4.26302 7.68448 2.72017 7.68448C1.17732 7.68448 0 8.89865 0 10.3999C0 11.9012 1.21628 13.1154 2.72017 13.1154C4.22405 13.1154 5.75391 12.5875 6.947 11.6354L8.77931 13.4645C7.82465 14.6565 7.29676 16.1438 7.29676 17.684C7.29676 19.2242 8.51304 20.3995 10.0169 20.3995C11.5208 20.3995 12.7371 19.1853 12.7371 17.684C12.7371 16.1827 12.2083 14.6555 11.2545 13.4645L13.0869 11.6354C14.2809 12.5884 15.7708 13.1154 17.3137 13.1154C18.8565 13.1154 20.0339 11.9012 20.0339 10.3999C20.0339 8.89865 18.8176 7.68448 17.3137 7.68448C15.8098 7.68448 14.2799 8.21238 13.0869 9.16446L11.2545 7.33533ZM10.0169 8.63007L8.24307 10.4009L10.0169 12.1716L11.7908 10.4009L10.0169 8.63007ZM14.42 10.3999C15.2587 10.9982 16.2709 11.327 17.3137 11.327C17.8286 11.327 18.2424 10.9139 18.2424 10.3999C18.2424 9.88592 17.8286 9.47286 17.3137 9.47286C16.27 9.47286 15.2587 9.80164 14.42 10.3999ZM10.0169 14.7954C9.4176 15.6326 9.08825 16.643 9.08825 17.684C9.08825 18.198 9.50203 18.6111 10.0169 18.6111C10.5318 18.6111 10.9456 18.198 10.9456 17.684C10.9456 16.6421 10.6163 15.6326 10.0169 14.7954ZM5.61382 10.3999C4.77513 9.80164 3.76296 9.47286 2.72017 9.47286C2.20526 9.47286 1.79149 9.88592 1.79149 10.3999C1.79149 10.9139 2.20526 11.327 2.72017 11.327C3.76389 11.327 4.77513 10.9982 5.61382 10.3999Z" fill="#3C1C54"/>
<path fill-rule="evenodd" clip-rule="evenodd" d="M10.0169 2.18877C9.50203 2.18877 9.08825 2.60183 9.08825 3.11583C9.08825 4.15774 9.4176 5.16723 10.0169 6.00447C10.6163 5.16723 10.9456 4.15682 10.9456 3.11583C10.9456 2.60183 10.5318 2.18877 10.0169 2.18877ZM11.2545 7.33533C12.2092 6.14339 12.7371 4.65601 12.7371 3.11583C12.7371 1.57566 11.5217 0.400391 10.0169 0.400391C8.51212 0.400391 7.29676 1.61456 7.29676 3.11583C7.29676 4.61711 7.82558 6.14431 8.77931 7.33533L6.947 9.16446C5.75298 8.21146 4.26302 7.68448 2.72017 7.68448C1.17732 7.68448 0 8.89865 0 10.3999C0 11.9012 1.21628 13.1154 2.72017 13.1154C4.22405 13.1154 5.75391 12.5875 6.947 11.6354L8.77931 13.4645C7.82465 14.6565 7.29676 16.1438 7.29676 17.684C7.29676 19.2242 8.51304 20.3995 10.0169 20.3995C11.5208 20.3995 12.7371 19.1853 12.7371 17.684C12.7371 16.1827 12.2083 14.6555 11.2545 13.4645L13.0869 11.6354C14.2809 12.5884 15.7708 13.1154 17.3137 13.1154C18.8565 13.1154 20.0339 11.9012 20.0339 10.3999C20.0339 8.89865 18.8176 7.68448 17.3137 7.68448C15.8098 7.68448 14.2799 8.21238 13.0869 9.16446L11.2545 7.33533ZM10.0169 8.63007L8.24307 10.4009L10.0169 12.1716L11.7908 10.4009L10.0169 8.63007ZM14.42 10.3999C15.2587 10.9982 16.2709 11.327 17.3137 11.327C17.8286 11.327 18.2424 10.9139 18.2424 10.3999C18.2424 9.88592 17.8286 9.47286 17.3137 9.47286C16.27 9.47286 15.2587 9.80164 14.42 10.3999ZM10.0169 14.7954C9.4176 15.6326 9.08825 16.643 9.08825 17.684C9.08825 18.198 9.50203 18.6111 10.0169 18.6111C10.5318 18.6111 10.9456 18.198 10.9456 17.684C10.9456 16.6421 10.6163 15.6326 10.0169 14.7954ZM5.61382 10.3999C4.77513 9.80164 3.76296 9.47286 2.72017 9.47286C2.20526 9.47286 1.79149 9.88592 1.79149 10.3999C1.79149 10.9139 2.20526 11.327 2.72017 11.327C3.76389 11.327 4.77513 10.9982 5.61382 10.3999Z" fill="#3C1C54"/>
</svg>
